# xmcd
#
# Track frame offsets:
#	150
#	10847
#	25967
#	39067
#	53085
#	64867
#	84117
#	99982
#	113692
#	129030
#	151845
#	166415
#
# Disc length: 2452 seconds
#
# Revision: 2
# Processed by: cddbd v1.5.2PL0 Copyright (c) Steve Scherf et al.
# Submitted via: audiograbber 1.83.01
#
DISCID=7909920c
DTITLE=Asleep At The Wheel - 20th Century Masters - The Millennium Collection  
DTITLE=The Best Of
DYEAR=2001
DGENRE=Oldies
TTITLE0=Cotton-Eyed Joe
TTITLE1=This Is The Way We Make A Broken Heart
TTITLE2=Across The Alley From The Alamo
TTITLE3=Deep Water
TTITLE4=Write Your Own Song
TTITLE5=Switchin' In The Kitchen
TTITLE6=Liar's Moon
TTITLE7=Cool As A Breeze
TTITLE8=You Wanna Give Me A Lift
TTITLE9=Lonely Avenue Revisited
TTITLE10=Slow Dancin'
TTITLE11=Midnight In Memphis
EXTD=
EXTT0=
EXTT1=
EXTT2=
EXTT3=
EXTT4=
EXTT5=
EXTT6=
EXTT7=
EXTT8=
EXTT9=
EXTT10=
EXTT11=
PLAYORDER=
